<svg width="0" height="0" class="hidden">
  <symbol fill="none" xmlns="http://www.w3.org/2000/svg" viewBox="0 0 13 14" id="buy">
    <path d="M11.2653 3.81981C11.261 3.76283 11.2133 3.71875 11.1562 3.71875H9.73436C9.43232 3.71875 9.18748 3.47391 9.18748 3.17188C9.18748 1.42286 7.76451 0 6.01561 0C4.2667 0 2.84373 1.42286 2.84373 3.17188C2.84373 3.47391 2.59889 3.71875 2.29686 3.71875H0.874985C0.817891 3.71875 0.770204 3.76283 0.765938 3.81981L0.000313585 13.8823C-0.00198329 13.9126 0.00840733 13.9426 0.0291886 13.9649C0.0498604 13.9873 0.0789541 14 0.10936 14H11.9219C11.9523 14 11.9814 13.9873 12.002 13.965C12.0227 13.9427 12.0332 13.9127 12.0309 13.8824L11.2653 3.81981ZM3.71873 3.17188C3.71873 1.90542 4.74905 0.875 6.01561 0.875C7.28217 0.875 8.31248 1.90542 8.31248 3.17188C8.31248 3.47391 8.06764 3.71875 7.76561 3.71875H4.26561C3.96358 3.71875 3.71873 3.47391 3.71873 3.17188ZM3.28123 6.78125C2.67803 6.78125 2.18748 6.29059 2.18748 5.6875C2.18748 5.59414 2.19749 5.50275 2.2175 5.41508C2.3246 4.94593 2.84373 5.20629 2.84373 5.6875C2.84373 5.92878 3.04006 6.125 3.28123 6.125C3.52241 6.125 3.71873 5.92878 3.71873 5.6875C3.71873 5.2066 4.2369 4.9468 4.3447 5.41546C4.36489 5.50321 4.37498 5.59451 4.37498 5.6875C4.37498 6.29059 3.88444 6.78125 3.28123 6.78125ZM8.74998 6.78125C8.14678 6.78125 7.65623 6.29059 7.65623 5.6875C7.65623 5.59414 7.66624 5.50275 7.68625 5.41508C7.79334 4.94593 8.31248 5.20629 8.31248 5.6875C8.31248 5.92878 8.50881 6.125 8.74998 6.125C8.99115 6.125 9.18748 5.92878 9.18748 5.6875C9.18748 5.2066 9.70565 4.9468 9.81345 5.41546C9.83364 5.50321 9.84373 5.59451 9.84373 5.6875C9.84373 6.29059 9.35318 6.78125 8.74998 6.78125Z" fill="#f58656"></path>
    <path d="M11.2653 3.81981C11.261 3.76283 11.2133 3.71875 11.1562 3.71875H9.73436C9.43232 3.71875 9.18748 3.47391 9.18748 3.17188C9.18748 1.42286 7.76451 0 6.01561 0C4.2667 0 2.84373 1.42286 2.84373 3.17188C2.84373 3.47391 2.59889 3.71875 2.29686 3.71875H0.874985C0.817891 3.71875 0.770204 3.76283 0.765938 3.81981L0.000313585 13.8823C-0.00198329 13.9126 0.00840733 13.9426 0.0291886 13.9649C0.0498604 13.9873 0.0789541 14 0.10936 14H11.9219C11.9523 14 11.9814 13.9873 12.002 13.965C12.0227 13.9427 12.0332 13.9127 12.0309 13.8824L11.2653 3.81981ZM3.71873 3.17188C3.71873 1.90542 4.74905 0.875 6.01561 0.875C7.28217 0.875 8.31248 1.90542 8.31248 3.17188C8.31248 3.47391 8.06764 3.71875 7.76561 3.71875H4.26561C3.96358 3.71875 3.71873 3.47391 3.71873 3.17188ZM3.28123 6.78125C2.67803 6.78125 2.18748 6.29059 2.18748 5.6875C2.18748 5.59414 2.19749 5.50275 2.2175 5.41508C2.3246 4.94593 2.84373 5.20629 2.84373 5.6875C2.84373 5.92878 3.04006 6.125 3.28123 6.125C3.52241 6.125 3.71873 5.92878 3.71873 5.6875C3.71873 5.2066 4.2369 4.9468 4.3447 5.41546C4.36489 5.50321 4.37498 5.59451 4.37498 5.6875C4.37498 6.29059 3.88444 6.78125 3.28123 6.78125ZM8.74998 6.78125C8.14678 6.78125 7.65623 6.29059 7.65623 5.6875C7.65623 5.59414 7.66624 5.50275 7.68625 5.41508C7.79334 4.94593 8.31248 5.20629 8.31248 5.6875C8.31248 5.92878 8.50881 6.125 8.74998 6.125C8.99115 6.125 9.18748 5.92878 9.18748 5.6875C9.18748 5.2066 9.70565 4.9468 9.81345 5.41546C9.83364 5.50321 9.84373 5.59451 9.84373 5.6875C9.84373 6.29059 9.35318 6.78125 8.74998 6.78125Z" fill="url(#paint0_linear_1_192)"></path>
    <path d="M11.2653 3.81981C11.261 3.76283 11.2133 3.71875 11.1562 3.71875H9.73436C9.43232 3.71875 9.18748 3.47391 9.18748 3.17188C9.18748 1.42286 7.76451 0 6.01561 0C4.2667 0 2.84373 1.42286 2.84373 3.17188C2.84373 3.47391 2.59889 3.71875 2.29686 3.71875H0.874985C0.817891 3.71875 0.770204 3.76283 0.765938 3.81981L0.000313585 13.8823C-0.00198329 13.9126 0.00840733 13.9426 0.0291886 13.9649C0.0498604 13.9873 0.0789541 14 0.10936 14H11.9219C11.9523 14 11.9814 13.9873 12.002 13.965C12.0227 13.9427 12.0332 13.9127 12.0309 13.8824L11.2653 3.81981ZM3.71873 3.17188C3.71873 1.90542 4.74905 0.875 6.01561 0.875C7.28217 0.875 8.31248 1.90542 8.31248 3.17188C8.31248 3.47391 8.06764 3.71875 7.76561 3.71875H4.26561C3.96358 3.71875 3.71873 3.47391 3.71873 3.17188ZM3.28123 6.78125C2.67803 6.78125 2.18748 6.29059 2.18748 5.6875C2.18748 5.59414 2.19749 5.50275 2.2175 5.41508C2.3246 4.94593 2.84373 5.20629 2.84373 5.6875C2.84373 5.92878 3.04006 6.125 3.28123 6.125C3.52241 6.125 3.71873 5.92878 3.71873 5.6875C3.71873 5.2066 4.2369 4.9468 4.3447 5.41546C4.36489 5.50321 4.37498 5.59451 4.37498 5.6875C4.37498 6.29059 3.88444 6.78125 3.28123 6.78125ZM8.74998 6.78125C8.14678 6.78125 7.65623 6.29059 7.65623 5.6875C7.65623 5.59414 7.66624 5.50275 7.68625 5.41508C7.79334 4.94593 8.31248 5.20629 8.31248 5.6875C8.31248 5.92878 8.50881 6.125 8.74998 6.125C8.99115 6.125 9.18748 5.92878 9.18748 5.6875C9.18748 5.2066 9.70565 4.9468 9.81345 5.41546C9.83364 5.50321 9.84373 5.59451 9.84373 5.6875C9.84373 6.29059 9.35318 6.78125 8.74998 6.78125Z" fill="url(#paint1_linear_1_192)"></path>
    <defs>
      <linearGradient id="paint0_linear_1_192" x1="6.01561" y1="0" x2="6.01561" y2="14" gradientUnits="userSpaceOnUse">
        <stop stop-color="#FE5626"></stop>
        <stop offset="1" stop-color="#F23F0E"></stop>
      </linearGradient>
      <linearGradient id="paint1_linear_1_192" x1="6.22278" y1="30.2055" x2="-6.20938" y2="26.7869" gradientUnits="userSpaceOnUse">
        <stop stop-color="#F58656"></stop>
        <stop offset="1" stop-color="#FE5626"></stop>
      </linearGradient>
    </defs>
  </symbol>
  <symbol fill="none" xmlns="http://www.w3.org/2000/svg" viewBox="0 0 27 27" id="update">
    <path d="M13.5 25C12.9477 25 12.5 25.4477 12.5 26C12.5 26.5523 12.9477 27 13.5 27V25ZM13.5 2C14.0523 2 14.5 1.55228 14.5 1C14.5 0.447715 14.0523 0 13.5 0V2ZM21.5882 4.42265L21.8638 3.46138L18.1709 2.40262L20.8789 5.12756L21.5882 4.42265ZM5.41176 22.5773L5.13617 23.5386L8.82911 24.5974L6.12107 21.8724L5.41176 22.5773ZM25.7244 6.64877C26.2553 6.80098 26.8091 6.49399 26.9613 5.9631C27.1135 5.4322 26.8065 4.87843 26.2756 4.72623L25.7244 6.64877ZM1.2756 20.3512C0.744699 20.199 0.190933 20.506 0.0387263 21.0369C-0.113481 21.5678 0.193508 22.1216 0.724405 22.2738L1.2756 20.3512ZM24.2647 13.5C24.2647 19.9093 19.3889 25 13.5 25V27C20.606 27 26.2647 20.8979 26.2647 13.5H24.2647ZM2.73529 13.5C2.73529 7.09075 7.61107 2 13.5 2V0C6.394 0 0.735294 6.10213 0.735294 13.5H2.73529ZM20.8789 5.12756C22.958 7.21959 24.2647 10.1909 24.2647 13.5H26.2647C26.2647 9.65951 24.7468 6.18225 22.2975 3.71775L20.8789 5.12756ZM6.12107 21.8724C4.04201 19.7804 2.73529 16.8091 2.73529 13.5H0.735294C0.735294 17.3405 2.25324 20.8177 4.70246 23.2822L6.12107 21.8724ZM21.3126 5.38393L25.7244 6.64877L26.2756 4.72623L21.8638 3.46138L21.3126 5.38393ZM5.68736 21.6161L1.2756 20.3512L0.724405 22.2738L5.13617 23.5386L5.68736 21.6161Z" fill="white"></path>
  </symbol>
</svg>