<svg width="27" height="27" viewBox="0 0 27 27" fill="none" xmlns="http://www.w3.org/2000/svg">
<path d="M13.5 25C12.9477 25 12.5 25.4477 12.5 26C12.5 26.5523 12.9477 27 13.5 27V25ZM13.5 2C14.0523 2 14.5 1.55228 14.5 1C14.5 0.447715 14.0523 0 13.5 0V2ZM21.5882 4.42265L21.8638 3.46138L18.1709 2.40262L20.8789 5.12756L21.5882 4.42265ZM5.41176 22.5773L5.13617 23.5386L8.82911 24.5974L6.12107 21.8724L5.41176 22.5773ZM25.7244 6.64877C26.2553 6.80098 26.8091 6.49399 26.9613 5.9631C27.1135 5.4322 26.8065 4.87843 26.2756 4.72623L25.7244 6.64877ZM1.2756 20.3512C0.744699 20.199 0.190933 20.506 0.0387263 21.0369C-0.113481 21.5678 0.193508 22.1216 0.724405 22.2738L1.2756 20.3512ZM24.2647 13.5C24.2647 19.9093 19.3889 25 13.5 25V27C20.606 27 26.2647 20.8979 26.2647 13.5H24.2647ZM2.73529 13.5C2.73529 7.09075 7.61107 2 13.5 2V0C6.394 0 0.735294 6.10213 0.735294 13.5H2.73529ZM20.8789 5.12756C22.958 7.21959 24.2647 10.1909 24.2647 13.5H26.2647C26.2647 9.65951 24.7468 6.18225 22.2975 3.71775L20.8789 5.12756ZM6.12107 21.8724C4.04201 19.7804 2.73529 16.8091 2.73529 13.5H0.735294C0.735294 17.3405 2.25324 20.8177 4.70246 23.2822L6.12107 21.8724ZM21.3126 5.38393L25.7244 6.64877L26.2756 4.72623L21.8638 3.46138L21.3126 5.38393ZM5.68736 21.6161L1.2756 20.3512L0.724405 22.2738L5.13617 23.5386L5.68736 21.6161Z" fill="white"/>
</svg>
